<svg width="250" height="250" viewBox="0 0 250 250" fill="none" xmlns="http://www.w3.org/2000/svg">
<path d="M187.512 137.838C186.756 135.549 184.777 133.954 182.218 133.572C181.011 133.391 179.629 133.468 177.993 133.806C175.142 134.394 173.028 134.618 171.484 134.661C177.31 124.821 182.047 113.6 184.775 103.037C189.185 85.957 186.828 78.176 184.074 74.6565C176.786 65.3408 166.154 60.3363 153.326 60.1832C146.483 60.0994 140.476 61.451 137.343 62.423C134.425 61.9079 131.288 61.6204 127.996 61.5672C121.825 61.4687 116.373 62.8144 111.715 65.5801C109.136 64.7076 104.996 63.4776 100.216 62.6928C88.9738 60.8464 79.9127 62.2851 73.2849 66.9691C65.2593 72.6402 61.5388 82.4936 62.2269 96.2555C62.4455 100.625 64.8887 113.919 68.7356 126.527C70.9465 133.774 73.3041 139.791 75.7429 144.415C79.2015 150.971 82.9022 154.831 87.0568 156.218C89.3853 156.994 93.6161 157.537 98.066 153.83C98.6301 154.513 99.3826 155.192 100.381 155.823C101.65 156.623 103.201 157.277 104.749 157.665C110.331 159.06 115.56 158.711 120.021 156.755C120.048 157.548 120.069 158.307 120.087 158.961C120.116 160.023 120.146 161.065 120.185 162.039C120.449 168.624 120.897 173.744 122.224 177.327C122.297 177.523 122.395 177.824 122.498 178.142C123.16 180.17 124.267 183.564 127.083 186.223C130 188.977 133.527 189.821 136.758 189.821C138.378 189.821 139.924 189.608 141.28 189.318C146.113 188.281 151.603 186.703 155.574 181.046C159.328 175.699 161.153 167.645 161.483 154.955C161.526 154.597 161.566 154.254 161.603 153.927L161.682 153.257L162.567 153.335L162.794 153.35C167.717 153.574 173.737 152.53 177.434 150.812C180.355 149.456 189.716 144.512 187.512 137.838Z" fill="black"/>
<path d="M179.094 139.136C164.457 142.156 163.45 137.199 163.45 137.199C178.905 114.257 185.366 85.1368 179.791 78.0097C164.58 58.5682 138.251 67.7629 137.811 68.0012L137.67 68.0268C134.778 67.4261 131.542 67.0686 127.904 67.009C121.281 66.9007 116.257 68.7461 112.444 71.6383C112.444 71.6383 65.4748 52.2811 67.6597 95.9833C68.1243 105.28 80.9802 166.33 96.3138 147.89C101.918 141.147 107.334 135.446 107.334 135.446C110.023 137.234 113.243 138.145 116.619 137.818L116.881 137.595C116.799 138.432 116.837 139.251 116.986 140.221C113.035 144.636 114.196 145.411 106.3 147.037C98.3092 148.685 103.003 151.617 106.068 152.384C109.784 153.314 118.379 154.63 124.187 146.497L123.956 147.425C125.503 148.665 126.59 155.491 126.408 161.68C126.226 167.868 126.104 172.117 127.323 175.435C128.543 178.754 129.758 186.221 140.14 183.996C148.813 182.136 153.309 177.317 153.934 169.279C154.378 163.564 155.382 164.409 155.445 159.3L156.251 156.881C157.18 149.135 156.399 146.635 161.742 147.798L163.042 147.912C166.974 148.091 172.123 147.279 175.144 145.874C181.65 142.854 185.509 137.811 179.093 139.136H179.094Z" fill="#336791"/>
<path d="M115.194 100.141C113.875 99.9575 112.68 100.127 112.076 100.585C111.736 100.843 111.631 101.141 111.602 101.346C111.526 101.891 111.907 102.492 112.142 102.802C112.804 103.681 113.772 104.284 114.73 104.417C114.868 104.437 115.007 104.446 115.144 104.446C116.741 104.446 118.194 103.202 118.322 102.283C118.481 101.133 116.812 100.367 115.194 100.142V100.141ZM158.892 100.178C158.766 99.276 157.162 99.019 155.641 99.2307C154.121 99.4424 152.647 100.129 152.77 101.032C152.869 101.735 154.137 102.934 155.638 102.934C155.765 102.934 155.893 102.926 156.022 102.908C157.024 102.769 157.76 102.132 158.109 101.765C158.641 101.206 158.949 100.583 158.892 100.178" fill="white"/>
<path d="M183.965 138.792C183.407 137.104 181.611 136.561 178.626 137.177C169.764 139.007 166.59 137.74 165.548 136.972C172.437 126.475 178.103 113.785 181.16 101.946C182.608 96.3378 183.408 91.1295 183.473 86.8842C183.546 82.2249 182.752 78.8009 181.116 76.7093C174.52 68.2774 164.839 63.7544 153.12 63.6303C145.063 63.5397 138.256 65.6023 136.937 66.1823C134.158 65.491 131.128 65.0666 127.83 65.0124C121.782 64.9144 116.554 66.363 112.226 69.3158C110.346 68.6156 105.487 66.947 99.5446 65.9893C89.2716 64.3349 81.1082 65.5885 75.2827 69.7171C68.3315 74.6438 65.1224 83.4504 65.744 95.8917C65.9532 100.077 68.3374 112.954 72.0997 125.286C77.0521 141.516 82.4356 150.704 88.0997 152.595C88.7627 152.816 89.5271 152.97 90.3702 152.97C92.4364 152.97 94.9697 152.039 97.6054 148.869C100.82 145.011 104.146 141.247 107.578 137.581C109.804 138.776 112.25 139.444 114.752 139.511C114.757 139.576 114.764 139.642 114.769 139.707C114.339 140.22 113.917 140.742 113.504 141.27C111.771 143.471 111.41 143.93 105.83 145.079C104.243 145.407 100.027 146.276 99.9654 149.232C99.8985 152.462 104.949 153.819 105.524 153.962C107.529 154.465 109.461 154.712 111.303 154.712C115.784 154.712 119.727 153.239 122.878 150.389C122.781 161.903 123.261 173.25 124.643 176.707C125.775 179.537 128.54 186.453 137.274 186.453C138.556 186.453 139.966 186.304 141.518 185.971C150.634 184.016 154.593 179.985 156.124 171.1C156.944 166.351 158.35 155.011 159.011 148.928C160.407 149.364 162.204 149.563 164.147 149.563C168.198 149.563 172.874 148.701 175.806 147.34C179.099 145.81 185.043 142.055 183.965 138.792V138.792ZM162.257 97.6889C162.227 99.4846 161.98 101.115 161.718 102.816C161.436 104.647 161.144 106.539 161.071 108.836C160.999 111.071 161.278 113.395 161.547 115.643C162.093 120.183 162.652 124.856 160.486 129.468C160.126 128.83 159.806 128.171 159.527 127.494C159.257 126.841 158.673 125.792 157.863 124.341C154.713 118.69 147.338 105.458 151.114 100.059C152.238 98.4516 155.092 96.7992 162.257 97.6889V97.6889ZM153.573 67.2665C164.073 67.4984 172.379 71.4281 178.26 78.9457C182.77 84.7119 177.803 110.949 163.425 133.584C163.281 133.4 163.135 133.217 162.989 133.034L162.807 132.807C166.522 126.668 165.796 120.595 165.149 115.21C164.884 113 164.632 110.913 164.696 108.952C164.762 106.875 165.037 105.092 165.303 103.369C165.629 101.245 165.961 99.0479 165.87 96.4575C165.938 96.1857 165.966 95.8646 165.93 95.4835C165.696 92.9995 162.861 85.5651 157.083 78.8364C153.922 75.1558 149.313 71.0371 143.019 68.2592C145.726 67.6978 149.428 67.1745 153.573 67.2665V67.2665ZM94.8161 146.549C91.9122 150.042 89.907 149.372 89.2475 149.152C84.9507 147.719 79.9648 138.633 75.5691 124.226C71.7655 111.76 69.5428 99.2251 69.3666 95.71C68.8114 84.5932 71.5051 76.8457 77.3735 72.6822C86.9239 65.9071 102.626 69.9623 108.935 72.0189C108.844 72.1085 108.75 72.1922 108.66 72.2833C98.3067 82.7433 98.5523 100.615 98.5779 101.707C98.5769 102.129 98.6124 102.725 98.6606 103.546C98.8388 106.552 99.1705 112.147 98.2846 118.482C97.4616 124.369 99.2758 130.131 103.261 134.292C103.67 134.718 104.1 135.123 104.549 135.507C102.775 137.407 98.92 141.61 94.8161 146.549V146.549ZM105.88 131.781C102.668 128.428 101.209 123.764 101.877 118.984C102.812 112.292 102.467 106.463 102.282 103.332C102.256 102.893 102.232 102.509 102.219 102.206C103.732 100.865 110.741 97.1079 115.74 98.2537C118.02 98.7761 119.41 100.33 119.988 103.003C122.979 116.84 120.384 122.607 118.299 127.242C117.869 128.196 117.463 129.099 117.117 130.033L116.848 130.754C116.168 132.579 115.535 134.276 115.143 135.887C111.728 135.877 108.406 134.418 105.88 131.78V131.781ZM106.404 150.442C105.407 150.193 104.51 149.76 103.984 149.401C104.424 149.194 105.206 148.913 106.562 148.633C113.126 147.281 114.14 146.327 116.354 143.515C116.862 142.87 117.437 142.14 118.234 141.249L118.235 141.248C119.422 139.919 119.964 140.144 120.949 140.553C121.747 140.883 122.524 141.883 122.839 142.984C122.988 143.504 123.155 144.491 122.608 145.259C117.983 151.737 111.244 151.654 106.404 150.442V150.442ZM140.758 182.423C132.728 184.144 129.885 180.045 128.011 175.359C126.801 172.334 126.207 158.692 126.629 143.627C126.634 143.427 126.606 143.233 126.55 143.051C126.501 142.691 126.426 142.335 126.326 141.986C125.699 139.794 124.171 137.961 122.337 137.201C121.609 136.899 120.272 136.345 118.666 136.756C119.008 135.344 119.602 133.749 120.246 132.022L120.517 131.296C120.821 130.477 121.203 129.629 121.606 128.731C123.788 123.882 126.776 117.24 123.533 102.236C122.319 96.616 118.262 93.8715 112.113 94.5091C108.426 94.8907 105.053 96.3787 103.371 97.232C103.009 97.4151 102.678 97.5924 102.369 97.7647C102.839 92.1024 104.613 81.5203 111.248 74.825C115.426 70.6102 120.991 68.5285 127.77 68.6407C141.128 68.8594 149.694 75.7172 154.528 81.4322C158.694 86.3564 160.95 91.3171 161.85 93.9926C155.08 93.3038 150.476 94.6406 148.142 97.9789C143.064 105.24 150.92 119.334 154.695 126.108C155.388 127.349 155.985 128.422 156.173 128.878C157.403 131.859 158.994 133.849 160.157 135.301C160.513 135.747 160.858 136.178 161.121 136.555C159.071 137.147 155.388 138.513 155.723 145.343C155.453 148.77 153.528 164.814 152.55 170.483C151.259 177.972 148.504 180.761 140.758 182.423V182.423ZM174.278 144.049C172.182 145.022 168.673 145.753 165.34 145.91C161.658 146.082 159.784 145.497 159.343 145.137C159.136 140.881 160.72 140.436 162.396 139.966C162.659 139.892 162.916 139.819 163.164 139.733C163.318 139.858 163.487 139.983 163.672 140.105C166.631 142.059 171.909 142.27 179.36 140.731L179.441 140.715C178.436 141.655 176.717 142.916 174.278 144.049Z" fill="white"/>
</svg>
